# xmcd
#
# Track frame offsets: 
#        150
#        16080
#        30332
#        44020
#        58595
#        69472
#        82642
#        99940
#        117117
#        131315
#
# Disc length: 1993 seconds
#
# Revision: 4
# Processed by: cddbd v1.5.2PL0 Copyright (c) Steve Scherf et al.
# Submitted via: ExactAudioCopy v1.1
#
DISCID=6b07c70a
DTITLE=Suzy Bogguss - Somewhere Between
DYEAR=1989
DGENRE=Country
TTITLE0=Somewhere Between
TTITLE1=Guilty As They Come
TTITLE2=I'm At Home On The Range
TTITLE3=My Sweet Love Ain't Around
TTITLE4=Handyman's Dream
TTITLE5=I Want To Be A Cowboy's Sweetheart
TTITLE6=Cross My Broken Heart
TTITLE7=Take It Like A Man
TTITLE8=Hopeless Romantic
TTITLE9=Night Rider's Lament
EXTD=YEAR: 1989
EXTT0=
EXTT1=
EXTT2=
EXTT3=
EXTT4=
EXTT5=
EXTT6=
EXTT7=
EXTT8=
EXTT9=
PLAYORDER=
